<?xml version="1.0" encoding="UTF-8"?>
<svg width="97px" height="97px" viewBox="0 0 97 97" version="1.1" xmlns="http://www.w3.org/2000/svg" xmlns:xlink="http://www.w3.org/1999/xlink">
    <!-- Generator: Sketch 47.1 (45422) - http://www.bohemiancoding.com/sketch -->
    <title>search</title>
    <desc>Created with Sketch.</desc>
    <defs></defs>
    <g id="Page-1" stroke="none" stroke-width="1" fill="none" fill-rule="evenodd">
        <path d="M96.609699,90.800598 L72.074699,66.265601 C84.859699,50.374601 83.886699,27.003601 69.144999,12.257601 C61.492699,4.609201 51.324999,0.394601 40.503999,0.394601 C29.687999,0.394601 19.515999,4.605501 11.866999,12.257601 C4.2147,19.909901 0,30.081601 0,40.898601 C0,51.714601 4.2109,61.886601 11.862999,69.539601 C19.511399,77.188001 29.682999,81.402601 40.499999,81.402601 C49.843799,81.402601 58.698999,78.254201 65.870999,72.469001 L90.401999,97 L96.609699,90.800598 Z M40.504699,72.628601 C32.031999,72.628601 24.063699,69.323901 18.070699,63.335601 C12.078499,57.343401 8.777699,49.374601 8.777699,40.897601 C8.777699,32.421001 12.078499,24.456601 18.070699,18.459601 C24.062899,12.467401 32.031699,9.166601 40.504699,9.166601 C48.981299,9.166601 56.949699,12.467401 62.942699,18.459601 C75.309699,30.830601 75.309699,50.959601 62.942699,63.334601 C56.950499,69.326801 48.981699,72.627601 40.504699,72.627601 L40.504699,72.628601 Z" id="search" fill="#000000"></path>
    </g>
</svg>