<?xml version="1.0" encoding="UTF-8"?>
<svg width="117px" height="98px" viewBox="0 0 117 98" version="1.1" xmlns="http://www.w3.org/2000/svg" xmlns:xlink="http://www.w3.org/1999/xlink">
    <!-- Generator: Sketch 47.1 (45422) - http://www.bohemiancoding.com/sketch -->
    <title>toolbox</title>
    <desc>Created with Sketch.</desc>
    <defs></defs>
    <g id="Page-1" stroke="none" stroke-width="1" fill="none" fill-rule="evenodd">
        <g id="toolbox" fill="#000000">
            <path d="M101.982867,21 L95.6576006,21 C95.7033009,21 95.9135387,21.1780016 95.9546759,21.2555983 C96.3340141,21.9219766 96.7042029,22.7298308 96.7042029,23.505798 L96.7042029,27.4904438 C96.7042029,29.9870694 94.3459461,31.7351864 91.850565,31.7351864 L80.6715434,31.7351864 C78.1715993,31.7351864 76.4074697,29.9870694 76.4074697,27.4904438 L76.4074697,21.0046154 L39.3967847,21.0046154 L39.3967847,27.4904438 C39.3967847,29.9870694 37.6098401,31.7351864 35.105216,31.7351864 L23.9353204,31.7351864 C21.4353763,31.7351864 19.0999346,29.9870694 19.0999346,27.4904438 L19.0999346,23.505798 C19.0999346,22.7344345 19.4472849,21.9310788 19.8220484,21.2692691 C19.8677603,21.1916724 20.0688487,21.0045453 20.1191237,21.0045453 L15.1374876,21.0045453 L0,37.5497874 L0,52 L50.1404485,52 L50.1404485,48.7776505 C50.1404485,46.6871779 51.9868292,44.847805 54.0800805,44.847805 L61.8770933,44.847805 C63.9749075,44.847805 65.6567859,46.6871779 65.6567859,48.7776505 L65.6567859,52 L117,52 L117,37.5497874 L101.982867,21 Z" id="Fill-1"></path>
            <path d="M24.2443526,29 L35.3441877,29 C36.0027321,29 36.0526918,29 36.0526918,28.3247187 L36.0526918,8.22766659 C36.0526918,7.11298057 37.4288206,6.03987874 38.5233524,6.03987874 L77.4539873,6.03987874 C78.5530651,6.03987874 79.9518543,7.1129332 79.9518543,8.22766659 L79.9473199,21.4192802 L79.9473199,28.3247187 C79.9473199,29 79.9745611,29 80.6240251,29 L91.732929,29 C92.377847,29 93,29 93,28.3247187 L93,24.2868369 C93,24.0833207 92.9137071,23.8335669 92.8092534,23.657805 C92.6048803,23.273909 92.1688814,22.959399 91.7328825,22.959399 L87.0550209,22.959399 C86.2375287,22.959399 84.6979526,22.959399 84.6979526,21.0630083 L84.6934066,3.70942349 C84.6934066,1.74364691 83.0992782,0 81.1827432,0 L34.7947825,0.00461783439 C32.8691787,0.00461783439 31.3067911,1.74838315 31.3067911,3.71404132 L31.3067911,21.0628899 C31.3067911,21.1831431 31.3658312,21.7520484 31.3067911,21.7520484 C31.0070447,22.9591977 29.7444035,22.9591977 28.9360033,22.9591977 L24.2444223,22.9591977 C23.799343,22.9591977 23.3815049,23.2737077 23.1725858,23.6576037 C23.0726665,23.8333656 23,24.0831312 23,24.2866356 L23,28.3245292 C23,28.9998106 23.5904123,28.9998106 24.2443991,28.9998106 L24.2443526,29 Z" id="Fill-2"></path>
            <path d="M65.5263687,59.3811775 L65.5263687,62.7254293 C65.5263687,64.8339613 63.8544114,66.8046685 61.7689718,66.8046685 L54.0179522,66.8046685 C51.9370487,66.8046685 50.1015594,64.8339613 50.1015594,62.7301332 L50.1015594,56.0049391 L5,56.000341 L5,92.933167 C5,95.5331469 6.73104282,98 9.30254223,98 L108.302178,98 C110.878213,98 112.968189,95.7123662 112.968189,93.1123863 L113,89.8141271 L113,56 L65.5268805,56 L65.5263687,59.3811775 Z" id="Fill-3"></path>
            <path d="M61.9944247,54.9978507 L61.9944247,48.3483326 C61.9944247,48.0982497 62.051245,48 61.8020994,48 L54.3452971,48 C54.1005266,48 54,48.0982497 54,48.3483326 L54,61.5355604 C54,61.7901133 54.0961627,62 54.3452971,62 L61.8020994,62 C62.051245,62 61.9944247,61.7856432 61.9944247,61.5355604 L61.9944247,54.9978507 Z" id="Fill-4"></path>
        </g>
    </g>
</svg>